<?xml version="1.0" ?><!DOCTYPE svg  PUBLIC '-//W3C//DTD SVG 1.1//EN'  'http://www.w3.org/Graphics/SVG/1.1/DTD/svg11.dtd'><svg height="128px" id="Layer_1" style="enable-background:new 0 0 128 128;" version="1.1" viewBox="0 0 128 128" width="128px" xml:space="preserve" xmlns="http://www.w3.org/2000/svg" xmlns:xlink="http://www.w3.org/1999/xlink"><g><path d="M46.403,61.019c-5.08,0-9.213-4.133-9.213-9.213s4.133-9.213,9.213-9.213s9.213,4.133,9.213,9.213   S51.483,61.019,46.403,61.019z M46.403,45.593c-3.426,0-6.213,2.787-6.213,6.213s2.787,6.213,6.213,6.213s6.213-2.787,6.213-6.213   S49.829,45.593,46.403,45.593z" style="fill:#EE3E36;"/></g><g><path d="M33.438,52.306c-0.828,0-1.5-0.671-1.5-1.5c0-7.423,6.039-13.463,13.463-13.463   c0.828,0,1.5,0.671,1.5,1.5s-0.672,1.5-1.5,1.5c-5.77,0-10.463,4.694-10.463,10.463C34.938,51.634,34.267,52.306,33.438,52.306z" style="fill:#EE3E36;"/></g><g><path d="M46.403,83.06c-3.136,0-5.688-2.65-5.688-5.907v-3.347c-2.055-0.529-4.012-1.34-5.843-2.422   l-2.368,2.368c-1.143,1.143-2.649,1.772-4.243,1.772c-1.509,0-2.914-0.574-3.956-1.617c-2.217-2.217-2.146-5.895,0.156-8.198   l2.367-2.368c-1.083-1.832-1.896-3.789-2.425-5.843h-3.343c-3.257,0-5.907-2.551-5.907-5.687s2.65-5.687,5.907-5.687h3.342   c0.528-2.056,1.34-4.015,2.422-5.846l-2.363-2.363c-2.303-2.303-2.373-5.98-0.157-8.198c1.044-1.043,2.449-1.617,3.957-1.617   c1.571,0,3.117,0.646,4.243,1.772l2.361,2.361c1.833-1.083,3.792-1.896,5.85-2.426V26.47c0-3.257,2.552-5.907,5.688-5.907   s5.687,2.65,5.687,5.907v3.337c2.058,0.529,4.017,1.342,5.849,2.425l2.361-2.361c1.144-1.143,2.65-1.772,4.244-1.772   c1.508,0,2.913,0.574,3.955,1.616c2.217,2.218,2.146,5.896-0.156,8.199l-2.363,2.363c1.083,1.833,1.895,3.791,2.423,5.847h3.342   c3.257,0,5.907,2.551,5.907,5.687s-2.65,5.687-5.907,5.687h-3.343c-0.529,2.055-1.342,4.013-2.426,5.844l2.367,2.367   c2.303,2.303,2.373,5.981,0.156,8.198c-1.043,1.042-2.447,1.617-3.956,1.617c-1.593,0-3.1-0.629-4.243-1.772l-2.369-2.369   c-1.83,1.082-3.787,1.893-5.841,2.421v3.348C52.09,80.41,49.539,83.06,46.403,83.06z M34.657,67.978   c0.288,0,0.578,0.083,0.831,0.251c2.144,1.428,4.507,2.407,7.022,2.911c0.7,0.14,1.205,0.756,1.205,1.471v4.542   c0,1.603,1.206,2.907,2.688,2.907s2.687-1.304,2.687-2.907V72.61c0-0.715,0.505-1.331,1.205-1.471   c2.515-0.503,4.877-1.482,7.021-2.91c0.595-0.396,1.387-0.317,1.892,0.188l3.214,3.214c1.084,1.083,2.957,1.158,3.957,0.155   c1.047-1.047,0.977-2.822-0.156-3.956l-3.213-3.213c-0.506-0.505-0.584-1.298-0.188-1.893c1.43-2.143,2.41-4.505,2.914-7.021   c0.141-0.701,0.756-1.206,1.471-1.206h4.538c1.604,0,2.907-1.206,2.907-2.687s-1.304-2.687-2.907-2.687h-4.537   c-0.715,0-1.331-0.505-1.471-1.206c-0.503-2.517-1.482-4.88-2.911-7.025c-0.396-0.595-0.317-1.387,0.188-1.892l3.208-3.208   c1.133-1.134,1.203-2.909,0.156-3.956c-1.001-1.001-2.875-0.927-3.957,0.157L59.214,35.2c-0.508,0.507-1.3,0.583-1.893,0.188   c-2.144-1.429-4.507-2.409-7.025-2.914c-0.701-0.14-1.206-0.756-1.206-1.471V26.47c0-1.603-1.205-2.907-2.687-2.907   s-2.688,1.304-2.688,2.907v4.532c0,0.715-0.505,1.331-1.205,1.471c-2.519,0.504-4.884,1.485-7.028,2.915   c-0.596,0.397-1.388,0.318-1.893-0.188l-3.206-3.207c-1.081-1.082-2.956-1.157-3.957-0.155c-1.047,1.047-0.977,2.822,0.156,3.956   l3.208,3.208c0.506,0.505,0.584,1.297,0.188,1.892c-1.428,2.144-2.406,4.507-2.91,7.024c-0.14,0.701-0.756,1.206-1.471,1.206   h-4.537c-1.604,0-2.907,1.206-2.907,2.687s1.304,2.687,2.907,2.687H25.6c0.715,0,1.33,0.504,1.471,1.205   c0.504,2.515,1.484,4.877,2.913,7.021c0.396,0.595,0.318,1.387-0.188,1.893l-3.213,3.213c-1.133,1.133-1.203,2.908-0.156,3.956   c1.001,1.001,2.874,0.927,3.957-0.156l3.213-3.213C33.887,68.127,34.271,67.978,34.657,67.978z" style="fill:#EE3E36;"/></g><g><path d="M89.044,87.617c-4.031,0-7.312-3.28-7.312-7.312s3.28-7.312,7.312-7.312s7.312,3.28,7.312,7.312   S93.075,87.617,89.044,87.617z M89.044,75.994c-2.377,0-4.312,1.934-4.312,4.312s1.935,4.312,4.312,4.312s4.312-1.934,4.312-4.312   S91.421,75.994,89.044,75.994z" style="fill:#313335;"/></g><g><path d="M89.044,104.225c-2.567,0-4.655-2.163-4.655-4.821v-2.238c-1.389-0.382-2.718-0.933-3.973-1.647   l-1.583,1.583c-0.932,0.931-2.159,1.444-3.459,1.444c-1.235,0-2.387-0.471-3.242-1.327c-1.814-1.815-1.762-4.821,0.117-6.7   l1.583-1.583c-0.715-1.255-1.267-2.584-1.648-3.973h-2.234c-2.658,0-4.821-2.088-4.821-4.655s2.163-4.655,4.821-4.655h2.232   c0.382-1.389,0.933-2.719,1.647-3.975l-1.58-1.58c-1.878-1.879-1.931-4.884-0.118-6.7c0.856-0.856,2.009-1.327,3.244-1.327   c1.299,0,2.527,0.513,3.458,1.443l1.577,1.578c1.257-0.715,2.588-1.267,3.979-1.649v-2.23c0-2.658,2.088-4.821,4.655-4.821   c2.566,0,4.654,2.163,4.654,4.821v2.23c1.391,0.382,2.722,0.934,3.977,1.649l1.578-1.578c0.932-0.931,2.16-1.444,3.459-1.444   c1.235,0,2.387,0.471,3.242,1.326c1.814,1.816,1.762,4.822-0.118,6.701l-1.579,1.579c0.714,1.256,1.266,2.586,1.647,3.976h2.233   c2.658,0,4.821,2.088,4.821,4.655s-2.163,4.655-4.821,4.655h-2.234c-0.383,1.39-0.935,2.719-1.649,3.974l1.582,1.582   c1.88,1.88,1.933,4.886,0.118,6.7c-0.855,0.855-2.007,1.327-3.243,1.327c-1.299,0-2.527-0.513-3.458-1.444l-1.584-1.583   c-1.254,0.713-2.583,1.264-3.971,1.646v2.238C93.698,102.063,91.61,104.225,89.044,104.225z M80.194,92.121   c0.287,0,0.577,0.083,0.83,0.251c1.575,1.049,3.311,1.768,5.158,2.138c0.701,0.14,1.206,0.756,1.206,1.471v3.423   c0,1.004,0.742,1.821,1.655,1.821c0.912,0,1.654-0.817,1.654-1.821v-3.423c0-0.715,0.505-1.331,1.205-1.471   c1.848-0.37,3.582-1.089,5.157-2.137c0.598-0.396,1.387-0.317,1.892,0.188l2.422,2.421c0.678,0.677,1.844,0.732,2.459,0.117   c0.645-0.645,0.592-1.747-0.118-2.458l-2.421-2.42c-0.506-0.505-0.584-1.298-0.188-1.893c1.05-1.573,1.771-3.309,2.142-5.159   c0.141-0.701,0.756-1.205,1.471-1.205h3.419c1.004,0,1.821-0.742,1.821-1.655s-0.817-1.655-1.821-1.655h-3.419   c-0.715,0-1.331-0.505-1.471-1.206c-0.369-1.848-1.089-3.584-2.139-5.161c-0.396-0.595-0.317-1.386,0.188-1.892l2.417-2.417   c0.71-0.71,0.763-1.813,0.118-2.458c-0.615-0.614-1.781-0.56-2.459,0.118l-2.416,2.416c-0.506,0.505-1.297,0.585-1.893,0.188   c-1.574-1.049-3.311-1.77-5.162-2.14c-0.7-0.14-1.205-0.756-1.205-1.471v-3.416c0-1.004-0.742-1.821-1.654-1.821   c-0.913,0-1.655,0.817-1.655,1.821v3.415c0,0.715-0.505,1.331-1.205,1.471c-1.851,0.371-3.588,1.091-5.165,2.141   c-0.594,0.396-1.386,0.318-1.892-0.188l-2.415-2.416c-0.679-0.676-1.844-0.731-2.459-0.117c-0.645,0.645-0.592,1.748,0.117,2.458   l2.418,2.417c0.506,0.505,0.584,1.297,0.188,1.892c-1.05,1.577-1.77,3.313-2.139,5.161c-0.14,0.701-0.756,1.206-1.471,1.206h-3.418   c-1.004,0-1.821,0.743-1.821,1.655s0.817,1.655,1.821,1.655h3.419c0.715,0,1.33,0.504,1.471,1.205   c0.37,1.846,1.09,3.582,2.14,5.159c0.396,0.595,0.318,1.387-0.188,1.892l-2.421,2.421c-0.709,0.709-0.762,1.813-0.116,2.458   c0.613,0.614,1.78,0.56,2.458-0.118l2.421-2.421C79.423,92.271,79.807,92.121,80.194,92.121z" style="fill:#313335;"/></g><rect height="128" id="_x3C_Slice_x3E__7_" style="fill:none;" width="128" x="-1" y="-1"/></svg>